<svg width="25" height="25" viewBox="0 0 25 25" fill="none" xmlns="http://www.w3.org/2000/svg">
<g clip-path="url(#clip0_21_171)">
<path d="M12.418 0.49975C7.35195 0.499753 3.23047 4.62124 3.23046 9.68726C3.23046 11.3088 3.6589 12.9031 4.46941 14.2976C4.65837 14.6228 4.86958 14.9396 5.0973 15.2394L12.0188 24.4997L12.8171 24.4997L19.7386 15.2394C19.9663 14.9396 20.1775 14.6228 20.3665 14.2977C21.177 12.9031 21.6055 11.3088 21.6055 9.68724C21.6055 4.62123 17.484 0.499746 12.418 0.49975ZM12.418 12.7341C10.7379 12.7341 9.37109 11.3673 9.37109 9.68725C9.37109 8.0072 10.7379 6.64038 12.418 6.64037C14.098 6.64037 15.4648 8.0072 15.4648 9.68725C15.4648 11.3673 14.098 12.7341 12.418 12.7341Z" fill="#5E6368"/>
</g>
<defs>
<clipPath id="clip0_21_171">
<rect width="24" height="24" fill="white" transform="matrix(1 -6.62152e-07 -6.273e-07 1 0.417969 0.499756)"/>
</clipPath>
</defs>
</svg>
