<svg width="25" height="25" viewBox="0 0 25 25" fill="none" xmlns="http://www.w3.org/2000/svg">
<g clip-path="url(#clip0_27_50)">
<path d="M12.7334 0.500238C7.66738 0.500241 3.5459 4.62173 3.54589 9.68774C3.54589 11.3093 3.97433 12.9036 4.78484 14.2981C4.9738 14.6233 5.18501 14.9401 5.41273 15.2399L12.3342 24.5002L13.1325 24.5002L20.054 15.2399C20.2817 14.9401 20.4929 14.6233 20.6819 14.2982C21.4925 12.9036 21.9209 11.3093 21.9209 9.68773C21.9209 4.62172 17.7994 0.500235 12.7334 0.500238ZM12.7334 12.7346C11.0533 12.7346 9.68652 11.3678 9.68652 9.68774C9.68652 8.00769 11.0533 6.64086 12.7334 6.64086C14.4134 6.64086 15.7803 8.00769 15.7803 9.68774C15.7803 11.3678 14.4134 12.7346 12.7334 12.7346Z" fill="#5E6368"/>
</g>
<defs>
<clipPath id="clip0_27_50">
<rect width="24" height="24" fill="white" transform="matrix(1 -6.62152e-07 -6.273e-07 1 0.733398 0.500244)"/>
</clipPath>
</defs>
</svg>
