<svg width="25" height="25" viewBox="0 0 25 25" fill="none" xmlns="http://www.w3.org/2000/svg">
<g clip-path="url(#clip0_27_71)">
<path d="M12.418 0.499261C7.35195 0.499265 3.23047 4.62075 3.23046 9.68677C3.23046 11.3084 3.6589 12.9026 4.46941 14.2972C4.65837 14.6223 4.86958 14.9391 5.0973 15.2389L12.0188 24.4993L12.8171 24.4993L19.7386 15.2389C19.9663 14.9391 20.1775 14.6223 20.3665 14.2972C21.177 12.9026 21.6055 11.3083 21.6055 9.68675C21.6055 4.62074 17.484 0.499258 12.418 0.499261ZM12.418 12.7336C10.7379 12.7336 9.37109 11.3668 9.37109 9.68676C9.37109 8.00672 10.7379 6.63989 12.418 6.63989C14.098 6.63989 15.4648 8.00671 15.4648 9.68676C15.4648 11.3668 14.098 12.7336 12.418 12.7336Z" fill="#5E6368"/>
</g>
<defs>
<clipPath id="clip0_27_71">
<rect width="24" height="24" fill="white" transform="matrix(1 -6.62152e-07 -6.273e-07 1 0.417969 0.499268)"/>
</clipPath>
</defs>
</svg>
