<svg width="25" height="25" viewBox="0 0 25 25" fill="none" xmlns="http://www.w3.org/2000/svg">
<g clip-path="url(#clip0_12_809)">
<path d="M12.7334 0.500482C7.66738 0.500486 3.5459 4.62197 3.54589 9.68799C3.54589 11.3096 3.97433 12.9038 4.78484 14.2984C4.9738 14.6235 5.18501 14.9403 5.41273 15.2401L12.3342 24.5005L13.1325 24.5005L20.054 15.2401C20.2817 14.9403 20.4929 14.6235 20.6819 14.2984C21.4925 12.9038 21.9209 11.3096 21.9209 9.68798C21.9209 4.62196 17.7994 0.500479 12.7334 0.500482ZM12.7334 12.7349C11.0533 12.7349 9.68652 11.368 9.68652 9.68798C9.68652 8.00794 11.0533 6.64111 12.7334 6.64111C14.4134 6.64111 15.7803 8.00793 15.7803 9.68798C15.7803 11.368 14.4134 12.7349 12.7334 12.7349Z" fill="#5E6368"/>
</g>
<defs>
<clipPath id="clip0_12_809">
<rect width="24" height="24" fill="white" transform="matrix(1 -6.62152e-07 -6.273e-07 1 0.733398 0.500488)"/>
</clipPath>
</defs>
</svg>
