<svg width="25" height="25" viewBox="0 0 25 25" fill="none" xmlns="http://www.w3.org/2000/svg">
<g clip-path="url(#clip0_27_92)">
<path d="M12.4189 0.499261C7.35293 0.499265 3.23144 4.62075 3.23144 9.68677C3.23144 11.3084 3.65987 12.9026 4.47039 14.2972C4.65934 14.6223 4.87056 14.9391 5.09828 15.2389L12.0197 24.4993L12.8181 24.4993L19.7396 15.2389C19.9673 14.9391 20.1785 14.6223 20.3675 14.2972C21.178 12.9026 21.6064 11.3083 21.6064 9.68675C21.6064 4.62074 17.485 0.499258 12.4189 0.499261ZM12.4189 12.7336C10.7389 12.7336 9.37206 11.3668 9.37206 9.68676C9.37207 8.00672 10.7389 6.63989 12.4189 6.63989C14.099 6.63989 15.4658 8.00671 15.4658 9.68676C15.4658 11.3668 14.099 12.7336 12.4189 12.7336Z" fill="#5E6368"/>
</g>
<defs>
<clipPath id="clip0_27_92">
<rect width="24" height="24" fill="white" transform="matrix(1 -6.62152e-07 -6.273e-07 1 0.418945 0.499268)"/>
</clipPath>
</defs>
</svg>
