<svg width="25" height="25" viewBox="0 0 25 25" fill="none" xmlns="http://www.w3.org/2000/svg">
<g clip-path="url(#clip0_27_29)">
<path d="M12.7344 0.49975C7.66836 0.499753 3.54687 4.62124 3.54687 9.68726C3.54687 11.3088 3.9753 12.9031 4.78582 14.2976C4.97477 14.6228 5.18599 14.9396 5.41371 15.2394L12.3352 24.4997L13.1335 24.4997L20.055 15.2394C20.2827 14.9396 20.4939 14.6228 20.6829 14.2977C21.4934 12.9031 21.9219 11.3088 21.9219 9.68724C21.9219 4.62123 17.8004 0.499746 12.7344 0.49975ZM12.7344 12.7341C11.0543 12.7341 9.68749 11.3673 9.68749 9.68725C9.68749 8.0072 11.0543 6.64038 12.7344 6.64037C14.4144 6.64037 15.7812 8.0072 15.7812 9.68725C15.7812 11.3673 14.4144 12.7341 12.7344 12.7341Z" fill="#5E6368"/>
</g>
<defs>
<clipPath id="clip0_27_29">
<rect width="24" height="24" fill="white" transform="matrix(1 -6.62152e-07 -6.273e-07 1 0.734375 0.499756)"/>
</clipPath>
</defs>
</svg>
