<svg width="25" height="25" viewBox="0 0 25 25" fill="none" xmlns="http://www.w3.org/2000/svg">
<path d="M12.7334 2.50024C11.4202 2.50024 10.1198 2.7589 8.90656 3.26144C7.69331 3.76399 6.59091 4.50059 5.66233 5.42917C3.78696 7.30454 2.73339 9.84808 2.73339 12.5002C2.73339 15.1524 3.78696 17.6959 5.66232 19.5713C6.5909 20.4999 7.6933 21.2365 8.90655 21.739C10.1198 22.2416 11.4202 22.5002 12.7334 22.5002C15.3855 22.5002 17.9291 21.4467 19.8045 19.5713C21.6798 17.6959 22.7334 15.1524 22.7334 12.5002C22.7334 11.187 22.4747 9.88665 21.9722 8.6734C21.4696 7.46014 20.733 6.35775 19.8045 5.42916C18.8759 4.50058 17.7735 3.76399 16.5602 3.26144C15.347 2.75889 14.0466 2.50024 12.7334 2.50024ZM16.9334 16.7002L11.7334 13.5002L11.7334 7.50024L13.2334 7.50024L13.2334 12.7002L17.7334 15.4002L16.9334 16.7002Z" fill="#5E6368"/>
</svg>
