<svg width="25" height="25" viewBox="0 0 25 25" fill="none" xmlns="http://www.w3.org/2000/svg">
<path d="M12.7334 2.50048C11.4202 2.50048 10.1198 2.75914 8.90656 3.26169C7.69331 3.76424 6.59091 4.50083 5.66233 5.42942C3.78696 7.30478 2.73339 9.84832 2.73339 12.5005C2.73339 15.1527 3.78696 17.6962 5.66232 19.5716C6.5909 20.5001 7.6933 21.2367 8.90655 21.7393C10.1198 22.2418 11.4202 22.5005 12.7334 22.5005C15.3855 22.5005 17.9291 21.4469 19.8045 19.5715C21.6798 17.6962 22.7334 15.1526 22.7334 12.5005C22.7334 11.1873 22.4747 9.8869 21.9722 8.67364C21.4696 7.46039 20.733 6.35799 19.8045 5.42941C18.8759 4.50082 17.7735 3.76423 16.5602 3.26168C15.347 2.75914 14.0466 2.50048 12.7334 2.50048ZM16.9334 16.7005L11.7334 13.5005L11.7334 7.50048L13.2334 7.50048L13.2334 12.7005L17.7334 15.4005L16.9334 16.7005Z" fill="#5E6368"/>
</svg>
