<svg width="25" height="25" viewBox="0 0 25 25" fill="none" xmlns="http://www.w3.org/2000/svg">
<path d="M12.418 2.49926C11.1047 2.49926 9.80439 2.75792 8.59113 3.26047C7.37788 3.76302 6.27549 4.49961 5.3469 5.4282C3.47153 7.30356 2.41796 9.8471 2.41796 12.4993C2.41796 15.1514 3.47153 17.695 5.34689 19.5703C6.27548 20.4989 7.37787 21.2355 8.59112 21.7381C9.80438 22.2406 11.1047 22.4993 12.418 22.4993C15.0701 22.4993 17.6137 21.4457 19.489 19.5703C21.3644 17.695 22.418 15.1514 22.418 12.4993C22.418 11.186 22.1593 9.88568 21.6568 8.67242C21.1542 7.45916 20.4176 6.35677 19.489 5.42819C18.5604 4.4996 17.4581 3.76301 16.2448 3.26046C15.0315 2.75792 13.7312 2.49926 12.418 2.49926ZM16.618 16.6993L11.418 13.4993L11.418 7.49926L12.918 7.49926L12.918 12.6993L17.418 15.3993L16.618 16.6993Z" fill="#5E6368"/>
</svg>
