<svg width="25" height="25" viewBox="0 0 25 25" fill="none" xmlns="http://www.w3.org/2000/svg">
<path d="M12.7344 2.49975C11.4212 2.49975 10.1208 2.75841 8.90754 3.26096C7.69428 3.7635 6.59189 4.5001 5.66331 5.42869C3.78794 7.30405 2.73437 9.84759 2.73437 12.4998C2.73437 15.1519 3.78793 17.6955 5.6633 19.5708C6.59188 20.4994 7.69427 21.236 8.90753 21.7385C10.1208 22.2411 11.4211 22.4997 12.7344 22.4997C15.3865 22.4997 17.9301 21.4462 19.8054 19.5708C21.6808 17.6954 22.7344 15.1519 22.7344 12.4997C22.7344 11.1865 22.4757 9.88616 21.9732 8.67291C21.4706 7.45965 20.734 6.35726 19.8054 5.42868C18.8769 4.50009 17.7745 3.7635 16.5612 3.26095C15.348 2.75841 14.0476 2.49975 12.7344 2.49975ZM16.9344 16.6997L11.7344 13.4997L11.7344 7.49975L13.2344 7.49975L13.2344 12.6997L17.7344 15.3997L16.9344 16.6997Z" fill="#5E6368"/>
</svg>
