<svg width="25" height="25" viewBox="0 0 25 25" fill="none" xmlns="http://www.w3.org/2000/svg">
<path d="M12.4189 2.49926C11.1057 2.49926 9.80537 2.75792 8.59211 3.26047C7.37885 3.76302 6.27646 4.49961 5.34788 5.4282C3.47251 7.30356 2.41894 9.8471 2.41894 12.4993C2.41894 15.1514 3.4725 17.695 5.34787 19.5703C6.27645 20.4989 7.37884 21.2355 8.5921 21.7381C9.80535 22.2406 11.1057 22.4993 12.4189 22.4993C15.0711 22.4993 17.6146 21.4457 19.49 19.5703C21.3654 17.695 22.4189 15.1514 22.4189 12.4993C22.4189 11.186 22.1603 9.88568 21.6577 8.67242C21.1552 7.45916 20.4186 6.35677 19.49 5.42819C18.5614 4.4996 17.459 3.76301 16.2458 3.26046C15.0325 2.75792 13.7322 2.49926 12.4189 2.49926ZM16.6189 16.6993L11.4189 13.4993L11.4189 7.49926L12.9189 7.49926L12.9189 12.6993L17.4189 15.3993L16.6189 16.6993Z" fill="#5E6368"/>
</svg>
