<svg width="25" height="25" viewBox="0 0 25 25" fill="none" xmlns="http://www.w3.org/2000/svg">
<path d="M12.418 2.49975C11.1047 2.49975 9.80439 2.75841 8.59113 3.26096C7.37788 3.7635 6.27549 4.5001 5.3469 5.42869C3.47153 7.30405 2.41796 9.84759 2.41796 12.4998C2.41796 15.1519 3.47153 17.6955 5.34689 19.5708C6.27548 20.4994 7.37787 21.236 8.59112 21.7385C9.80438 22.2411 11.1047 22.4997 12.418 22.4997C15.0701 22.4997 17.6137 21.4462 19.489 19.5708C21.3644 17.6954 22.418 15.1519 22.418 12.4997C22.418 11.1865 22.1593 9.88616 21.6568 8.67291C21.1542 7.45965 20.4176 6.35726 19.489 5.42868C18.5604 4.50009 17.4581 3.7635 16.2448 3.26095C15.0315 2.75841 13.7312 2.49975 12.418 2.49975ZM16.618 16.6997L11.418 13.4997L11.418 7.49975L12.918 7.49975L12.918 12.6997L17.418 15.3997L16.618 16.6997Z" fill="#5E6368"/>
</svg>
